<svg height="512pt" viewBox="0 0 512 512" width="512pt" xmlns="http://www.w3.org/2000/svg"><path d="m474.667969 85.332031h-69.335938c-11.773437 0-21.332031 9.558594-21.332031 21.335938 0 11.773437 9.558594 21.332031 21.332031 21.332031h64v256h-426.664062v-256h64c11.773437 0 21.332031-9.558594 21.332031-21.332031 0-11.777344-9.558594-21.335938-21.332031-21.335938h-69.335938c-20.605469 0-37.332031 16.726563-37.332031 37.335938v266.664062c0 20.609375 16.726562 37.335938 37.332031 37.335938h176v42.664062h-42.664062c-11.777344 0-21.335938 9.558594-21.335938 21.335938 0 11.773437 9.558594 21.332031 21.335938 21.332031h170.664062c11.796875 0 21.335938-9.558594 21.335938-21.332031 0-11.777344-9.539063-21.335938-21.335938-21.335938h-42.664062v-42.664062h176c20.605469 0 37.332031-16.726563 37.332031-37.335938v-266.664062c0-20.609375-16.726562-37.335938-37.332031-37.335938zm0 0"/><path d="m334.996094 116.671875c.40625-3.304687 1.003906-6.570313 1.003906-10.003906 0-3.4375-.597656-6.699219-1.003906-10.007813l19.222656-14.546875c4.289062-3.242187 5.484375-9.175781 2.792969-13.847656l-17.257813-29.867187c-2.6875-4.648438-8.425781-6.589844-13.375-4.5l-22.121094 9.324218c-5.398437-4.117187-11.136718-7.746094-17.472656-10.390625l-2.945312-23.488281c-.683594-5.332031-5.207032-9.34375-10.582032-9.34375h-34.496093c-5.375 0-9.917969 4.011719-10.582031 9.34375l-2.941407 23.488281c-6.359375 2.644531-12.097656 6.292969-17.496093 10.390625l-22.097657-9.324218c-4.972656-2.089844-10.710937-.171876-13.398437 4.5l-17.238282 29.867187c-2.6875 4.652344-1.492187 10.582031 2.792969 13.847656l19.222657 14.546875c-.425782 3.308594-1.023438 6.570313-1.023438 10.007813 0 3.433593.597656 6.699219 1.003906 10.003906l-19.203125 14.550781c-4.285156 3.242188-5.503906 9.171875-2.792969 13.84375l17.238282 29.867188c2.6875 4.671875 8.425781 6.589844 13.398437 4.5l22.121094-9.34375c5.398437 4.117187 11.136719 7.746094 17.472656 10.390625l2.941407 23.488281c.664062 5.355469 5.1875 9.363281 10.5625 9.363281h34.496093c5.375 0 9.917969-4.007812 10.582031-9.34375l2.941407-23.488281c6.335937-2.644531 12.097656-6.292969 17.472656-10.386719l22.121094 9.320313c4.972656 2.089844 10.710937.171875 13.398437-4.5l17.238282-29.867188c2.6875-4.652344 1.492187-10.582031-2.792969-13.84375zm-78.996094 32.660156c-23.574219 0-42.667969-19.09375-42.667969-42.664062 0-23.574219 19.09375-42.667969 42.667969-42.667969s42.667969 19.09375 42.667969 42.667969c0 23.570312-19.09375 42.664062-42.667969 42.664062zm0 0"/></svg>